<?xml version="1.0" encoding="UTF-8"?>
<!DOCTYPE svg PUBLIC "-//W3C//DTD SVG 1.1//EN" "http://www.w3.org/Graphics/SVG/1.1/DTD/svg11.dtd">
<!-- Creator: CorelDRAW -->
<svg xmlns="http://www.w3.org/2000/svg" xml:space="preserve" width="60.2616mm" height="60.2618mm" version="1.1" style="shape-rendering:geometricPrecision; text-rendering:geometricPrecision; image-rendering:optimizeQuality; fill-rule:evenodd; clip-rule:evenodd"
viewBox="0 0 6026.16 6026.18"
 xmlns:xlink="http://www.w3.org/1999/xlink"
 xmlns:xodm="http://www.corel.com/coreldraw/odm/2003">
 <defs>
  <style type="text/css">
   <![CDATA[
    .fil0 {fill:#66403D}
   ]]>
  </style>
 </defs>
 <g id="Camada_x0020_1">
  <metadata id="CorelCorpID_0Corel-Layer"/>
  <path class="fil0" d="M3013.07 0.01c175.53,0 347.5,15.18 514.79,43.99 -1067.6,69.33 -1916.84,732.27 -1916.84,1766.86 0,687.16 500.52,1136.78 1162.22,1493.08 551.42,296.91 797.43,551.41 797.43,924.68 0,551.42 -500.51,848.34 -1051.93,848.34 -509,0 -967.11,-152.7 -1289.48,-364.79l-226.95 544.71c-615.19,-551.61 -1002.31,-1352.46 -1002.31,-2243.79 0,-1664.08 1349,-3013.08 3013.07,-3013.08zm1851.7 636.09c706.81,551.41 1161.39,1411.07 1161.39,2376.99 0,1664.08 -1349,3013.08 -3013.09,3013.08 -278.19,0 -547.49,-37.88 -803.24,-108.45 64.9,4.16 131.16,6.76 198.62,7.58 1272.51,0 2205.68,-704.12 2205.68,-1849.37 0,-695.64 -415.68,-1153.74 -1111.32,-1518.53 -534.46,-296.91 -856.82,-534.45 -856.82,-924.69 0,-381.75 356.3,-746.53 992.55,-746.53 458.1,-8.48 839.86,152.7 1026.49,254.5l199.74 -504.58z"/>
 </g>
</svg>
