<?xml version="1.0" encoding="UTF-8"?>
<!DOCTYPE svg PUBLIC "-//W3C//DTD SVG 1.1//EN" "http://www.w3.org/Graphics/SVG/1.1/DTD/svg11.dtd">
<!-- Creator: CorelDRAW -->
<svg xmlns="http://www.w3.org/2000/svg" xml:space="preserve" width="512px" height="512px" version="1.1" style="shape-rendering:geometricPrecision; text-rendering:geometricPrecision; image-rendering:optimizeQuality; fill-rule:evenodd; clip-rule:evenodd"
viewBox="0 0 512 512"
 xmlns:xlink="http://www.w3.org/1999/xlink"
 xmlns:xodm="http://www.corel.com/coreldraw/odm/2003">
 <defs>
  <style type="text/css">
   <![CDATA[
    .fil0 {fill:#EF9C9F}
   ]]>
  </style>
 </defs>
 <g id="Borda_x0020_e_x0020_ilhó">
  <metadata id="CorelCorpID_0Corel-Layer"/>
  <path class="fil0" d="M256 0c14.91,0 29.52,1.29 43.74,3.74 -90.71,5.89 -162.86,62.21 -162.86,150.12 0,58.38 42.52,96.58 98.74,126.85 46.85,25.23 67.76,46.85 67.76,78.57 0,46.85 -42.53,72.07 -89.38,72.07 -43.25,0 -82.17,-12.97 -109.56,-30.99l-19.28 46.28c-52.27,-46.87 -85.16,-114.91 -85.16,-190.64 0,-141.38 114.61,-256 256,-256zm157.33 54.05c60.05,46.84 98.67,119.88 98.67,201.95 0,141.39 -114.61,256 -256,256 -23.64,0 -46.52,-3.22 -68.25,-9.21 5.52,0.35 11.15,0.57 16.88,0.64 108.12,0 187.4,-59.82 187.4,-157.13 0,-59.1 -35.32,-98.02 -94.42,-129.02 -45.41,-25.22 -72.8,-45.4 -72.8,-78.56 0,-32.43 30.27,-63.43 84.33,-63.43 38.92,-0.72 71.36,12.98 87.22,21.62l16.97 -42.86z"/>
 </g>
</svg>
