<?xml version="1.0" encoding="UTF-8"?>
<!DOCTYPE svg PUBLIC "-//W3C//DTD SVG 1.1//EN" "http://www.w3.org/Graphics/SVG/1.1/DTD/svg11.dtd">
<!-- Creator: CorelDRAW -->
<svg xmlns="http://www.w3.org/2000/svg" xml:space="preserve" width="6.35mm" height="6.3502mm" version="1.1" style="shape-rendering:geometricPrecision; text-rendering:geometricPrecision; image-rendering:optimizeQuality; fill-rule:evenodd; clip-rule:evenodd"
viewBox="0 0 635 635.02"
 xmlns:xlink="http://www.w3.org/1999/xlink"
 xmlns:xodm="http://www.corel.com/coreldraw/odm/2003">
 <defs>
  <style type="text/css">
   <![CDATA[
    .fil0 {fill:#F7EFE6;fill-rule:nonzero}
   ]]>
  </style>
 </defs>
 <g id="Camada_x0020_1">
  <metadata id="CorelCorpID_0Corel-Layer"/>
  <g>
   <path class="fil0" d="M186.01 2.22c-33.78,1.59 -56.85,6.99 -77.02,14.91 -20.87,8.14 -38.56,19.05 -56.17,36.72 -17.6,17.67 -28.44,35.37 -36.52,56.28 -7.82,20.21 -13.11,43.3 -14.61,77.1 -1.49,33.8 -1.82,44.67 -1.66,130.89 0.16,86.22 0.55,97.03 2.18,130.9 1.61,33.77 6.99,56.84 14.91,77.01 8.15,20.87 19.05,38.56 36.72,56.17 17.67,17.61 35.36,28.42 56.32,36.51 20.19,7.81 43.29,13.13 77.08,14.61 33.8,1.48 44.67,1.83 130.87,1.66 86.2,-0.16 97.05,-0.55 130.91,-2.15 33.87,-1.61 56.81,-7.02 76.99,-14.9 20.87,-8.17 38.57,-19.05 56.17,-36.73 17.59,-17.68 28.43,-35.4 36.5,-56.31 7.82,-20.19 13.14,-43.29 14.61,-77.06 1.48,-33.89 1.83,-44.71 1.67,-130.92 -0.17,-86.21 -0.56,-97.02 -2.16,-130.88 -1.61,-33.86 -6.99,-56.85 -14.9,-77.04 -8.16,-20.87 -19.05,-38.54 -36.71,-56.17 -17.67,-17.63 -35.4,-28.46 -56.3,-36.51 -20.21,-7.82 -43.29,-13.14 -77.09,-14.6 -33.79,-1.46 -44.67,-1.84 -130.9,-1.67 -86.23,0.16 -97.02,0.53 -130.89,2.18l0 0zm3.71 573.97c-30.96,-1.35 -47.77,-6.49 -58.97,-10.8 -14.83,-5.72 -25.4,-12.62 -36.56,-23.68 -11.17,-11.05 -18.02,-21.66 -23.81,-36.46 -4.35,-11.2 -9.59,-27.99 -11.04,-58.95 -1.57,-33.46 -1.91,-43.5 -2.09,-128.27 -0.19,-84.76 0.14,-94.8 1.61,-128.27 1.32,-30.93 6.5,-47.76 10.8,-58.95 5.72,-14.85 12.6,-25.4 23.68,-36.55 11.08,-11.16 21.65,-18.03 36.47,-23.82 11.19,-4.37 27.98,-9.56 58.92,-11.04 33.48,-1.59 43.52,-1.91 128.27,-2.09 84.75,-0.19 94.81,0.13 128.31,1.61 30.93,1.34 47.77,6.47 58.95,10.8 14.84,5.72 25.4,12.58 36.55,23.68 11.16,11.1 18.03,21.63 23.83,36.48 4.37,11.16 9.57,27.94 11.03,58.9 1.59,33.48 1.96,43.52 2.11,128.27 0.15,84.75 -0.15,94.81 -1.61,128.27 -1.35,30.96 -6.48,47.77 -10.8,58.99 -5.72,14.83 -12.6,25.4 -23.69,36.55 -11.09,11.15 -21.65,18.02 -36.47,23.81 -11.18,4.36 -27.98,9.57 -58.9,11.04 -33.49,1.57 -43.52,1.91 -128.3,2.09 -84.79,0.19 -94.79,-0.16 -128.27,-1.61l-0.02 0zm258.84 -428.38c0.03,21.01 17.08,38.03 38.1,38.03 21.04,0 38.1,-17.06 38.1,-38.1 0,-21.04 -17.06,-38.1 -38.1,-38.1 -0.02,0 -0.06,0 -0.08,0 -21.01,0.04 -38.02,17.09 -38.02,38.1 0,0.02 0,0.05 0,0.07l0 0zm-294.07 170.01c0.18,90.04 73.31,162.87 163.33,162.7 90.03,-0.17 162.9,-73.29 162.73,-163.34 -0.17,-90.04 -73.32,-162.89 -163.35,-162.71 -90.04,0.18 -162.88,73.32 -162.71,163.35l0 0zm57.19 -0.12c0.01,-0.08 0.01,-0.16 0.01,-0.21 0,-58.44 47.39,-105.83 105.82,-105.83 58.44,0 105.83,47.39 105.83,105.83 0,58.35 -47.26,105.72 -105.62,105.82 -0.06,0.01 -0.16,0.01 -0.21,0.01 -58.36,0 -105.72,-47.27 -105.82,-105.63l-0.01 0.01zm0 0l0 0 0 0z"/>
  </g>
 </g>
</svg>
