<?xml version="1.0" encoding="UTF-8"?>
<!DOCTYPE svg PUBLIC "-//W3C//DTD SVG 1.1//EN" "http://www.w3.org/Graphics/SVG/1.1/DTD/svg11.dtd">
<!-- Creator: CorelDRAW -->
<svg xmlns="http://www.w3.org/2000/svg" xml:space="preserve" width="189.332mm" height="190.224mm" version="1.1" style="shape-rendering:geometricPrecision; text-rendering:geometricPrecision; image-rendering:optimizeQuality; fill-rule:evenodd; clip-rule:evenodd"
viewBox="0 0 18933.22 19022.44"
 xmlns:xlink="http://www.w3.org/1999/xlink"
 xmlns:xodm="http://www.corel.com/coreldraw/odm/2003">
 <defs>
  <style type="text/css">
   <![CDATA[
    .str0 {stroke:#F7EFE6;stroke-width:169.33;stroke-miterlimit:10}
    .fil1 {fill:none;fill-rule:nonzero}
    .fil0 {fill:#F7EFE6;fill-rule:nonzero}
   ]]>
  </style>
 </defs>
 <g id="Camada_x0020_1">
  <metadata id="CorelCorpID_0Corel-Layer"/>
  <g>
   <path class="fil0" d="M13843.67 11388.79c-235.42,-118.1 -1393.48,-687.19 -1609.08,-766.45 -216.39,-78.46 -373.34,-117.3 -531.07,118.89 -156.15,235.4 -607.96,765.65 -745.09,922.59 -137.13,157.73 -275.05,176.75 -510.47,59.44 -235.41,-118.88 -994.77,-366.97 -1894.42,-1169.08 -699.91,-624.57 -1173.12,-1395.77 -1310.25,-1631.96 -137.13,-235.41 -14.27,-363.02 103.04,-480.32 106.22,-105.42 236.21,-275.03 353.52,-412.15 118.11,-137.92 156.95,-236.2 236.21,-393.93 78.48,-156.93 39.64,-294.05 -19.81,-412.15 -59.45,-118.1 -530.28,-1277.67 -726.07,-1749.27 -191.82,-458.91 -386.02,-396.3 -530.28,-404.22 -137.13,-6.34 -294.07,-7.93 -451.81,-7.93 -156.94,0 -412.17,58.65 -627.77,294.85 -215.6,235.4 -824.36,805.28 -824.36,1964.86 0,1158.78 844.17,2278.72 961.48,2436.45 118.11,156.93 1661.39,2536.32 4024.27,3556.4 561.99,242.53 1000.33,387.58 1342.75,495.37 564.36,179.92 1078,154.56 1483.04,93.53 452.6,-67.37 1393.48,-569.88 1590.06,-1119.95 196.57,-550.06 196.57,-1021.66 137.12,-1119.94 -58.65,-98.28 -215.6,-156.93 -451.81,-275.03l0.8 0zm-4297.74 5867.62l-3.17 0c-349.22,0.03 -696.88,-23.22 -1042.99,-69.75 -346.1,-46.52 -687.56,-115.91 -1024.38,-208.16 -336.81,-92.25 -665.97,-206.53 -987.48,-342.86 -321.51,-136.32 -632.49,-293.47 -932.96,-471.44l-286.14 -169.61 -2965.3 778.33 791.06 -2891.41 -186.27 -296.43c-195.12,-310.68 -367.51,-633.5 -517.16,-968.46 -149.66,-334.96 -275.1,-678.76 -376.34,-1031.38 -101.23,-352.63 -177.26,-710.61 -228.07,-1073.94 -50.82,-363.33 -75.93,-728.43 -75.33,-1095.3 0.8,-4319.67 3516.19,-7834.06 7837.7,-7834.06 2092.59,0 4059.94,816.38 5539.03,2296.96 181.99,181.18 354.6,370.9 517.83,569.16 163.23,198.26 316.27,404.09 459.14,617.49 142.86,213.39 274.84,433.32 395.95,659.78 121.1,226.45 230.73,458.33 328.89,695.63 98.17,237.3 184.38,478.86 258.64,724.69 74.27,245.83 136.22,494.73 185.86,746.68 49.64,251.96 86.72,505.75 111.25,761.38 24.53,255.62 36.38,511.83 35.56,768.63 -2.37,4319.68 -3516.97,7834.06 -7835.32,7834.06l0 0.01zm6668.55 -14502.21c-217.81,-219.23 -445.9,-427.16 -684.29,-623.81 -238.39,-196.65 -485.9,-381.04 -742.54,-553.19 -256.65,-172.14 -521.17,-331.19 -793.56,-477.15 -272.38,-145.96 -551.31,-278.12 -836.79,-396.47 -285.47,-118.35 -576.09,-222.31 -871.86,-311.89 -295.76,-89.58 -595.23,-164.34 -898.4,-224.28 -303.16,-59.93 -608.55,-104.76 -916.15,-134.46 -307.61,-29.71 -615.93,-44.15 -924.96,-43.34 -5195.8,0 -9424.58,4228.52 -9426.96,9425.6 0,1661.29 433.58,3282.95 1258.73,4712.01l-1337.99 4884.8 4997.64 -1310.96c344.17,187.49 698.66,352.86 1063.47,496.1 364.81,143.24 737.12,263.24 1116.91,360 379.8,96.77 764.14,169.54 1153.02,218.33 388.88,48.78 779.29,73.2 1171.22,73.25l3.96 0c5195.01,0 9424.58,-4228.52 9426.96,-9426.39 0.95,-308.9 -13.33,-617.09 -42.86,-924.57 -29.53,-307.49 -74.15,-612.76 -133.88,-915.83 -59.72,-303.08 -134.26,-602.46 -223.59,-898.16 -89.34,-295.7 -193.05,-586.27 -311.13,-871.71 -118.07,-285.44 -249.95,-564.36 -395.62,-836.76 -145.66,-272.4 -304.42,-536.95 -476.25,-793.65 -171.84,-256.7 -355.92,-504.3 -552.24,-742.79 -196.33,-238.49 -403.94,-466.72 -622.85,-684.68l0.01 0z"/>
   <path id="_1" class="fil1 str0" d="M13843.67 11388.79c-235.42,-118.1 -1393.48,-687.19 -1609.08,-766.45 -216.39,-78.46 -373.34,-117.3 -531.07,118.89 -156.15,235.4 -607.96,765.65 -745.09,922.59 -137.13,157.73 -275.05,176.75 -510.47,59.44 -235.41,-118.88 -994.77,-366.97 -1894.42,-1169.08 -699.91,-624.57 -1173.12,-1395.77 -1310.25,-1631.96 -137.13,-235.41 -14.27,-363.02 103.04,-480.32 106.22,-105.42 236.21,-275.03 353.52,-412.15 118.11,-137.92 156.95,-236.2 236.21,-393.93 78.48,-156.93 39.64,-294.05 -19.81,-412.15 -59.45,-118.1 -530.28,-1277.67 -726.07,-1749.27 -191.82,-458.91 -386.02,-396.3 -530.28,-404.22 -137.13,-6.34 -294.07,-7.93 -451.81,-7.93 -156.94,0 -412.17,58.65 -627.77,294.85 -215.6,235.4 -824.36,805.28 -824.36,1964.86 0,1158.78 844.17,2278.72 961.48,2436.45 118.11,156.93 1661.39,2536.32 4024.27,3556.4 561.99,242.53 1000.33,387.58 1342.75,495.37 564.36,179.92 1078,154.56 1483.04,93.53 452.6,-67.37 1393.48,-569.88 1590.06,-1119.95 196.57,-550.06 196.57,-1021.66 137.12,-1119.94 -58.65,-98.28 -215.6,-156.93 -451.81,-275.03m-4296.94 5867.62l-3.17 0c-349.22,0.03 -696.88,-23.22 -1042.99,-69.75 -346.1,-46.52 -687.56,-115.91 -1024.38,-208.16 -336.81,-92.25 -665.97,-206.53 -987.48,-342.86 -321.51,-136.32 -632.49,-293.47 -932.96,-471.44l-286.14 -169.61 -2965.3 778.33 791.06 -2891.41 -186.27 -296.43c-195.12,-310.68 -367.51,-633.5 -517.16,-968.46 -149.66,-334.96 -275.1,-678.76 -376.34,-1031.38 -101.23,-352.63 -177.26,-710.61 -228.07,-1073.94 -50.82,-363.33 -75.93,-728.43 -75.33,-1095.3 0.8,-4319.67 3516.19,-7834.06 7837.7,-7834.06 2092.59,0 4059.94,816.38 5539.03,2296.96 181.99,181.18 354.6,370.9 517.83,569.16 163.23,198.26 316.27,404.09 459.14,617.49 142.86,213.39 274.84,433.32 395.95,659.78 121.1,226.45 230.73,458.33 328.89,695.63 98.17,237.3 184.38,478.86 258.64,724.69 74.27,245.83 136.22,494.73 185.86,746.68 49.64,251.96 86.72,505.75 111.25,761.38 24.53,255.62 36.38,511.83 35.56,768.63 -2.37,4319.68 -3516.97,7834.06 -7835.32,7834.06m6668.55 -14502.2c-217.81,-219.23 -445.9,-427.16 -684.29,-623.81 -238.39,-196.65 -485.9,-381.04 -742.54,-553.19 -256.65,-172.14 -521.17,-331.19 -793.56,-477.15 -272.38,-145.96 -551.31,-278.12 -836.79,-396.47 -285.47,-118.35 -576.09,-222.31 -871.86,-311.89 -295.76,-89.58 -595.23,-164.34 -898.4,-224.28 -303.16,-59.93 -608.55,-104.76 -916.15,-134.46 -307.61,-29.71 -615.93,-44.15 -924.96,-43.34 -5195.8,0 -9424.58,4228.52 -9426.96,9425.6 0,1661.29 433.58,3282.95 1258.73,4712.01l-1337.99 4884.8 4997.64 -1310.96c344.17,187.49 698.66,352.86 1063.47,496.1 364.81,143.24 737.12,263.24 1116.91,360 379.8,96.77 764.14,169.54 1153.02,218.33 388.88,48.78 779.29,73.2 1171.22,73.25l3.96 0c5195.01,0 9424.58,-4228.52 9426.96,-9426.39 0.95,-308.9 -13.33,-617.09 -42.86,-924.57 -29.53,-307.49 -74.15,-612.76 -133.88,-915.83 -59.72,-303.08 -134.26,-602.46 -223.59,-898.16 -89.34,-295.7 -193.05,-586.27 -311.13,-871.71 -118.07,-285.44 -249.95,-564.36 -395.62,-836.76 -145.66,-272.4 -304.42,-536.95 -476.25,-793.65 -171.84,-256.7 -355.92,-504.3 -552.24,-742.79 -196.33,-238.49 -403.94,-466.72 -622.85,-684.68l0.01 0z"/>
  </g>
 </g>
</svg>
