<?xml version="1.0" encoding="UTF-8"?>
<!DOCTYPE svg PUBLIC "-//W3C//DTD SVG 1.1//EN" "http://www.w3.org/Graphics/SVG/1.1/DTD/svg11.dtd">
<!-- Creator: CorelDRAW -->
<svg xmlns="http://www.w3.org/2000/svg" xml:space="preserve" width="512px" height="512px" version="1.1" style="shape-rendering:geometricPrecision; text-rendering:geometricPrecision; image-rendering:optimizeQuality; fill-rule:evenodd; clip-rule:evenodd"
viewBox="0 0 512 512"
 xmlns:xlink="http://www.w3.org/1999/xlink"
 xmlns:xodm="http://www.corel.com/coreldraw/odm/2003">
 <defs>
  <style type="text/css">
   <![CDATA[
    .fil0 {fill:#EF9C9F}
   ]]>
  </style>
 </defs>
 <g id="Borda_x0020_e_x0020_ilhó">
  <metadata id="CorelCorpID_0Corel-Layer"/>
  <path class="fil0" d="M254.48 9.26c14.56,0 28.83,1.26 42.71,3.65 -88.58,5.76 -159.04,60.76 -159.04,146.6 0,57.02 41.53,94.33 96.43,123.89 45.75,24.63 66.16,45.75 66.16,76.72 0,45.75 -41.53,70.39 -87.28,70.39 -42.23,0 -80.24,-12.67 -106.99,-30.27l-18.83 45.2c-51.04,-45.77 -83.16,-112.22 -83.16,-186.17 0,-138.08 111.93,-250.01 250,-250.01zm153.64 52.78c58.64,45.75 96.36,117.08 96.36,197.23 0,138.07 -111.93,250 -250,250 -23.08,0 -45.43,-3.15 -66.65,-9 5.39,0.34 10.88,0.56 16.48,0.63 105.58,0 183.01,-58.43 183.01,-153.45 0,-57.72 -34.49,-95.73 -92.21,-125.99 -44.34,-24.64 -71.09,-44.35 -71.09,-76.73 0,-31.67 29.56,-61.94 82.35,-61.94 38.01,-0.7 69.69,12.67 85.17,21.12l16.58 -41.87z"/>
 </g>
</svg>
