<?xml version="1.0" encoding="UTF-8"?>
<!DOCTYPE svg PUBLIC "-//W3C//DTD SVG 1.1//EN" "http://www.w3.org/Graphics/SVG/1.1/DTD/svg11.dtd">
<!-- Creator: CorelDRAW -->
<svg xmlns="http://www.w3.org/2000/svg" xml:space="preserve" width="207.482mm" height="65.5656mm" version="1.1" style="shape-rendering:geometricPrecision; text-rendering:geometricPrecision; image-rendering:optimizeQuality; fill-rule:evenodd; clip-rule:evenodd"
viewBox="0 0 20748.18 6556.56"
 xmlns:xlink="http://www.w3.org/1999/xlink"
 xmlns:xodm="http://www.corel.com/coreldraw/odm/2003">
 <defs>
  <style type="text/css">
   <![CDATA[
    .fil0 {fill:#5D312D;fill-rule:nonzero}
   ]]>
  </style>
 </defs>
 <g id="Camada_x0020_1">
  <metadata id="CorelCorpID_0Corel-Layer"/>
  <g id="_1893439726352">
   <path class="fil0" d="M16159.37 923.3l-126.12 636.53 -455.42 0 -119.12 629.52 455.42 0 -294.28 1517.89c-49.03,251.81 -70.06,440.68 -70.06,629.54 0,391.71 245.24,699.48 805.77,699.48 196.2,0 413.39,-20.99 532.51,-69.95l77.08 -636.53c-84.07,13.99 -182.17,20.99 -280.26,20.99 -217.21,0 -301.31,-118.92 -301.31,-307.78 0,-146.89 28.03,-321.76 63.06,-482.63l266.27 -1371.01 763.74 0 126.12 -629.52 -763.75 0 161.16 -874.35 -840.81 237.82zm2031.37 4043.01l308.29 -1622.79c133.12,-720.49 588.55,-1196.13 980.94,-1196.13 308.28,0 427.39,202.85 427.39,461.67 0,167.86 -21,314.77 -42.01,447.67l-364.37 1909.58 812.79 0 371.36 -1972.53c35.03,-181.89 63.05,-419.7 63.05,-594.58 0,-629.54 -385.37,-916.3 -854.82,-916.3 -476.44,0 -854.81,230.81 -1142.08,587.56l-14.05 0 399.43 -2070.47 -812.79 0 -945.91 4966.32 812.78 0zm-7994.99 -3465.45c-1163.15,0 -1968.9,1000.25 -1968.9,2154.39 0,811.4 532.51,1405.98 1394.34,1405.98 1163.11,0 1968.86,-993.28 1968.86,-2154.42 0,-748.44 -476.45,-1405.95 -1394.3,-1405.95zm-98.11 629.53c490.46,0 651.62,433.67 651.62,783.43 0,678.48 -406.39,1517.87 -1015.98,1517.87 -420.42,0 -665.64,-328.76 -665.64,-797.41 0,-636.54 378.38,-1503.89 1030,-1503.89zm3705.98 -629.53c-1163.14,0 -1968.89,1000.25 -1968.89,2154.39 0,811.4 532.5,1405.98 1394.34,1405.98 1163.1,0 1968.86,-993.28 1968.86,-2154.42 0,-748.44 -476.46,-1405.95 -1394.31,-1405.95zm-98.11 629.53c490.47,0 651.62,433.67 651.62,783.43 0,678.48 -406.39,1517.87 -1015.97,1517.87 -420.42,0 -665.64,-328.76 -665.64,-797.41 0,-636.54 378.37,-1503.89 1029.99,-1503.89zm-13705.52 2661.1c182.17,132.88 553.51,244.81 952.89,251.81 819.78,6.98 1450.39,-412.7 1450.39,-1168.14 0,-433.69 -329.3,-713.49 -707.69,-916.32 -294.28,-146.91 -441.4,-279.79 -441.4,-475.65 0,-230.83 210.2,-391.72 518.48,-391.72 280.29,0 504.48,83.96 637.6,153.88l203.22 -587.56c-147.16,-90.92 -441.43,-174.85 -798.76,-174.85 -805.77,0 -1380.32,461.64 -1380.32,1119.16 0,391.72 280.27,678.51 672.62,888.34 336.34,174.86 448.43,314.77 448.43,524.61 0,230.83 -196.18,419.7 -525.51,419.7 -308.27,0 -644.61,-125.92 -819.77,-223.84l-210.18 580.58zm3475.88 174.86l295.47 -1608.81c126.11,-692.49 560.52,-1210.11 937.72,-1210.11 335.16,0 412.22,237.83 412.22,489.64 0,125.9 -21.01,258.82 -42.03,398.7l-370.19 1930.58 790.58 0 301.3 -1629.79c133.13,-720.47 546.52,-1189.13 924.88,-1189.13 294.28,0 413.39,195.85 413.39,489.64 0,132.91 -21.03,293.8 -49.04,426.68l-350.33 1902.6 791.76 0 371.33 -1993.53c28.04,-181.86 56.05,-433.67 56.05,-580.56 0,-608.55 -364.33,-909.32 -826.75,-909.32 -476.47,6.97 -903.9,237.8 -1212.18,699.46 -28.02,-356.73 -266.27,-699.46 -798.77,-699.46 -447.26,0 -873.49,216.83 -1188.8,671.48l-14.02 0 77.1 -594.55 -708.87 0c-42.02,293.79 -91.08,650.51 -168.14,1056.22l-434.43 2350.26 791.75 0z"/>
   <path class="fil0" d="M3177.15 6181.5c33.29,14.35 59.74,36.38 79.33,66.08 19.57,29.73 29.36,63.17 29.36,100.39 0,60.06 -23,107.07 -69.04,141.02 -46.02,33.94 -109.51,50.92 -190.47,50.92l-338.81 0 0 -685.49 338.81 0c73.78,0 131.88,16.32 174.31,48.95 42.45,32.64 63.67,77.03 63.67,133.19 0,33.29 -7.68,62.51 -23.02,87.63 -15.35,25.15 -36.72,44.24 -64.14,57.31zm-331.98 -194.89l0 136.12 184.1 0c25.46,0 45.05,-5.87 58.77,-17.63 13.7,-11.74 20.56,-28.39 20.56,-49.95 0,-21.53 -7.02,-38.34 -21.06,-50.42 -14.04,-12.07 -33.45,-18.12 -58.27,-18.12l-184.1 0zm191.93 418.15c28.73,0 51.1,-6.84 67.1,-20.56 15.98,-13.7 23.99,-32.64 23.99,-56.79 0,-24.82 -8.01,-43.92 -23.99,-57.3 -16,-13.39 -38.37,-20.07 -67.1,-20.07l-191.93 0 0 154.72 191.93 0zm1870.7 135.15l-50.92 -123.39 -337.85 0 -50.93 123.39 -171.38 0 307.49 -685.49 171.38 0 305.54 685.49 -173.33 0zm-218.39 -531.75l-112.6 270.28 223.26 0 -110.66 -270.28zm2055.79 531.75l-208.58 0 -240.91 -272.24 0 272.24 -159.62 0 0 -685.49 159.62 0 0 268.31 225.22 -268.31 197.82 0 -288.89 335.88 315.34 349.61zm1203.79 -135.15l378.02 0 0 135.15 -533.71 0 0 -685.49 522.92 0 0 134.15 -367.23 0 0 139.05 347.66 0 0 129.28 -347.66 0 0 147.86zm1935.34 -550.34l159.61 0 0 685.49 -159.61 0 0 -275.18 -290.86 0 0 275.18 -160.58 0 0 -685.49 160.58 0 0 265.37 290.86 0 0 -265.37zm1626.85 702.14c-73.78,0 -138.57,-14.85 -194.39,-44.57 -55.82,-29.7 -98.9,-71.64 -129.26,-125.83 -30.35,-54.19 -45.54,-117.18 -45.54,-189 0,-71.82 15.19,-134.81 45.54,-189 30.36,-54.19 73.44,-96.14 129.26,-125.85 55.82,-29.7 120.61,-44.55 194.39,-44.55 73.76,0 138.56,14.85 194.37,44.55 55.84,29.71 98.93,71.66 129.28,125.85 30.36,54.19 45.53,117.18 45.53,189 0,71.82 -15.17,134.81 -45.53,189 -30.35,54.19 -73.44,96.13 -129.28,125.83 -55.81,29.72 -120.61,44.57 -194.37,44.57zm0 -142.98c41.13,0 77.53,-8.98 109.19,-26.92 31.65,-17.97 56.14,-43.27 73.45,-75.91 17.29,-32.63 25.95,-70.5 25.95,-113.59 0,-43.08 -8.66,-80.96 -25.95,-113.59 -17.31,-32.66 -41.8,-57.94 -73.45,-75.9 -31.66,-17.95 -68.06,-26.93 -109.19,-26.93 -41.14,0 -77.37,8.98 -108.71,26.93 -31.33,17.96 -55.64,43.24 -72.95,75.9 -17.31,32.63 -25.96,70.51 -25.96,113.59 0,43.09 8.65,80.96 25.96,113.59 17.31,32.64 41.62,57.94 72.95,75.91 31.34,17.94 67.57,26.92 108.71,26.92zm1766.88 141.02c-98.58,0 -175.12,-27.27 -229.65,-81.77 -54.5,-54.51 -81.77,-130.75 -81.77,-228.66l0 -389.75 160.61 0 0 389.75c0,52.23 13.23,93.35 39.66,123.39 26.45,30.02 63.48,45.03 111.15,45.03 46.36,0 82.92,-15.01 109.69,-45.03 26.77,-30.04 40.15,-71.16 40.15,-123.39l0 -389.75 160.59 0 0 389.75c0,97.91 -27.09,174.15 -81.28,228.66 -54.19,54.5 -130.57,81.77 -229.15,81.77zm1690.5 0.97c-56.13,0 -110.16,-8.49 -162.07,-25.46 -51.89,-16.97 -96.78,-40.81 -134.65,-71.48l83.26 -116.55c60.71,47.67 131.53,71.5 212.49,71.5 40.47,0 72.63,-6.86 96.46,-20.56 23.84,-13.72 35.73,-32.32 35.73,-55.83 0,-22.19 -11.08,-39.5 -33.29,-51.89 -22.19,-12.42 -57.44,-21.22 -105.76,-26.45 -93.35,-10.43 -161.74,-32.3 -205.16,-65.61 -43.4,-33.3 -65.11,-80.96 -65.11,-142.98 0,-41.78 11.76,-78.66 35.25,-110.64 23.5,-32 56.47,-56.81 98.9,-74.44 42.43,-17.62 91.41,-26.45 146.89,-26.45 47.66,0 94.18,6.86 139.55,20.58 45.38,13.71 85.35,32.96 119.97,57.78l-75.4 112.61c-53.54,-37.2 -112.62,-55.82 -177.26,-55.82 -39.82,0 -71.64,6.52 -95.47,19.59 -23.84,13.05 -35.75,30.67 -35.75,52.88 0,21.55 10.29,38.19 30.85,49.95 20.56,11.73 55,20.56 103.3,26.43 92.72,10.45 161.92,33.47 207.62,69.04 45.7,35.59 68.54,84.39 68.54,146.41 0,43.08 -12.07,81.11 -36.22,114.09 -24.17,32.95 -58.12,58.43 -101.86,76.37 -43.74,17.95 -94,26.93 -150.81,26.93zm1534.8 -150.81l378.01 0 0 135.15 -533.7 0 0 -685.49 522.92 0 0 134.15 -367.23 0 0 139.05 347.66 0 0 129.28 -347.66 0 0 147.86z"/>
  </g>
 </g>
</svg>
